<svg id="Layer_1" data-name="Layer 1" xmlns="http://www.w3.org/2000/svg" viewBox="0 0 179.16 20.56">
  <title>logo</title>
  <g>
    <path d="M43,.6C42.27.11,40.83,0,38,0H25.26V4.55h18.6c0-.93.28-3.17-.9-3.95" transform="translate(0 0)" style="fill: #0176bd"/>
    <path d="M67.2,2.84V14.48L57.17,2.2C55.28-.12,54.84,0,51.72,0H48.85V17.32c0,3.08.44,3.19,5.55,3.19V5.92l10,12.2c1.75,2.08,1.85,2.39,5.35,2.39h3V0c-5,0-5.55.08-5.55,2.84" transform="translate(0 0)" style="fill: #0176bd"/>
    <path d="M42.85,16.42c-.76-.44-2.28-.54-5.31-.54H25.22v4.53H43.81c0-1,.28-3.16-1-4" transform="translate(0 0)" style="fill: #0176bd"/>
    <path d="M41,8.5c-.62-.42-1.91-.5-4.42-.5H25.23V12H41.78c0-.81.25-2.76-.79-3.45" transform="translate(0 0)" style="fill: #0176bd"/>
    <path d="M119.66,2.16a20.05,20.05,0,0,0,0-2.12h-16C100.24,0,100,.32,100,3.76h7.2V17.32c0,3.07.34,3.2,5.41,3.2V3.76h3.11c2,0,2.92-.08,3.41-.48a1.43,1.43,0,0,0,.53-1.12" transform="translate(0 0)" style="fill: #0176bd"/>
    <path d="M7.54,7.72C6,7.32,5.44,6.84,5.43,5.89s.18-1.35.51-1.63,1.27-.49,2.84-.51h6.89c3.7,0,4-.24,4-3.76H10.56C3.26,0-.1,2.4,0,6.28c.1,4.84,6.09,5,10.42,5.76,1.64.28,4.64.87,4.67,2.57a1.85,1.85,0,0,1-.49,1.61,3.72,3.72,0,0,1-2.27.5c-1.1,0-2.24,0-2.64,0H4.82c-2,0-3,.08-3.46.52s-.58,1.2-.58,3.32h9c8.13,0,10.71-3.16,10.71-6.24,0-5.76-8.13-5.36-12.95-6.6" transform="translate(0 0)" style="fill: #0176bd"/>
    <path d="M85.05,7.72c-1.51-.4-2.11-.88-2.12-1.83s.18-1.35.51-1.63,1.27-.49,2.85-.51h6.89c3.7,0,3.94-.24,3.94-3.76H88.07c-7.3,0-10.66,2.4-10.56,6.28.09,4.84,6.08,5,10.41,5.76,1.65.28,4.64.87,4.67,2.57a1.79,1.79,0,0,1-.49,1.61,3.68,3.68,0,0,1-2.27.5c-1.1,0-2.23,0-2.64,0H82.32c-2,0-3,.08-3.45.52s-.58,1.2-.58,3.32h9C95.42,20.56,98,17.4,98,14.32c0-5.76-8.13-5.36-13-6.6" transform="translate(0 0)" style="fill: #0176bd"/>
    <path d="M168,6.6C168,3.84,166.74,0,157,0h-4.83c-1.12,0-1.9,0-2.53,0-2.63.2-2.34,1.56-2.34,3.2v14c0,1.6.1,2.4.73,2.8.93.6,3.7.44,4.77.44V3.72a40,40,0,0,1,6.69.32c1.91.38,2.91,1.22,2.92,2.53s-.25,1.86-.71,2.25-1.71.67-3.8.7h-3.64A5.4,5.4,0,0,0,155.1,13c1,1.22,5.19,5.27,5.19,5.27,1.85,1.87,2.68,2.24,5.55,2.28h3.87L161,13c3.85,0,7-1.68,7-6.36" transform="translate(0 0)" style="fill: #0176bd"/>
    <path d="M131.21,0c-3.44,0-3.73.13-4.93,2.52l-9.32,18c6.26,0,6.31,0,7.47-2.36l1.1-2.32h2.79c2.51,0,3.8-.08,4.42-.51,1-.68.8-2.64.8-3.45h-6.13c1.78-3.75,3.71-7.83,3.81-8,.19.36,6.78,14.3,6.78,14.3,1.16,2.36,1.21,2.36,7.47,2.36l-9.31-18C135,.16,134.65,0,131.21,0" transform="translate(0 0)" style="fill: #0176bd"/>
    <path d="M175.07,16.9V15.8h1a.53.53,0,0,1,.58.55.54.54,0,0,1-.58.55Zm-.62,1.73a.19.19,0,0,0,.19.19h.25a.19.19,0,0,0,.19-.19V17.47h.71l.55,1.21c0,.06.09.14.17.14h.33a.18.18,0,0,0,.17-.26c-.2-.38-.39-.77-.58-1.15a1,1,0,0,0,.78-1.06A1.1,1.1,0,0,0,176,15.26h-1.38a.19.19,0,0,0-.19.19Zm-1.68-1.58a2.9,2.9,0,1,1,2.9,2.9,2.9,2.9,0,0,1-2.9-2.9m-.59,0a3.49,3.49,0,1,0,3.49-3.49,3.5,3.5,0,0,0-3.49,3.49" transform="translate(0 0)" style="fill: #0176bd"/>
  </g>
</svg>
